<?xml version="1.0" encoding="UTF-8" standalone="no"?>
<!-- Created with Inkscape (http://www.inkscape.org/) -->

<svg
   version="1.1"
   id="svg132"
   width="243.73703"
   height="150"
   viewBox="0 0 243.73703 150"
   sodipodi:docname="PIMAHENIGOR (2).png"
   xml:space="preserve"
   xmlns:inkscape="http://www.inkscape.org/namespaces/inkscape"
   xmlns:sodipodi="http://sodipodi.sourceforge.net/DTD/sodipodi-0.dtd"
   xmlns="http://www.w3.org/2000/svg"
   xmlns:svg="http://www.w3.org/2000/svg"><defs
     id="defs136"><inkscape:path-effect
       effect="skeletal"
       id="path-effect27613"
       is_visible="true"
       lpeversion="1"
       pattern="M -42.59437,22.499691"
       copytype="single_stretched"
       prop_scale="1.2147186"
       scale_y_rel="false"
       spacing="0"
       normal_offset="0"
       tang_offset="0"
       prop_units="false"
       vertical_pattern="false"
       hide_knot="false"
       fuse_tolerance="0" /><inkscape:path-effect
       effect="spiro"
       id="path-effect27609"
       is_visible="true"
       lpeversion="1" /><inkscape:path-effect
       effect="skeletal"
       id="path-effect27605"
       is_visible="true"
       lpeversion="1"
       pattern="M -42.59437,22.499691"
       copytype="single_stretched"
       prop_scale="1.2147186"
       scale_y_rel="false"
       spacing="0"
       normal_offset="0"
       tang_offset="0"
       prop_units="false"
       vertical_pattern="false"
       hide_knot="false"
       fuse_tolerance="0" /><inkscape:path-effect
       effect="spiro"
       id="path-effect27601"
       is_visible="true"
       lpeversion="1" /><filter
       inkscape:collect="always"
       style="color-interpolation-filters:sRGB"
       id="filter23382"
       x="-0.013451116"
       y="-0.02973697"
       width="1.0269022"
       height="1.0594739"><feGaussianBlur
         inkscape:collect="always"
         stdDeviation="2.3417865"
         id="feGaussianBlur23384" /></filter><filter
       inkscape:collect="always"
       style="color-interpolation-filters:sRGB"
       id="filter23388"
       x="-0.0087140184"
       y="-0.019264461"
       width="1.017428"
       height="1.0385289"><feGaussianBlur
         inkscape:collect="always"
         stdDeviation="1.5170764"
         id="feGaussianBlur23390" /></filter><filter
       inkscape:collect="always"
       style="color-interpolation-filters:sRGB"
       id="filter23418"
       x="-0.099805102"
       y="-0.030781629"
       width="1.2039375"
       height="1.0616362"><feGaussianBlur
         inkscape:collect="always"
         stdDeviation="1.4300932"
         id="feGaussianBlur23420" /></filter><filter
       inkscape:collect="always"
       style="color-interpolation-filters:sRGB"
       id="filter28112"
       x="-0.091082431"
       y="-0.11297594"
       width="1.1827488"
       height="1.2259965"><feGaussianBlur
         inkscape:collect="always"
         stdDeviation="2.6200753"
         id="feGaussianBlur28114" /></filter></defs><sodipodi:namedview
     id="namedview134"
     pagecolor="#ffffff"
     bordercolor="#000000"
     borderopacity="0.25"
     inkscape:showpageshadow="2"
     inkscape:pageopacity="0"
     inkscape:pagecheckerboard="0"
     inkscape:deskcolor="#d1d1d1"
     showgrid="false" /><g
     inkscape:groupmode="layer"
     inkscape:label="Image"
     id="g138"
     transform="translate(-29.312231,-18.724331)"><g
       id="g27597"
       transform="matrix(0.72185903,0,0,0.72185903,14.171861,9.277491)"
       inkscape:export-filename="manual_do_git.svg"
       inkscape:export-xdpi="96"
       inkscape:export-ydpi="96"><g
         id="g28154"><path
           style="fill:#6041ef;fill-opacity:1;stroke:#6a63a4;stroke-width:4.6715;stroke-linecap:round;stroke-linejoin:round;stroke-opacity:1"
           d="M -48.025862,37.925185 Z"
           id="path27407"
           inkscape:path-effect="#path-effect27601;#path-effect27605"
           inkscape:original-d="m -48.025862,37.925185 c -0.575987,1.543377 -3.95277,2.326202 -4.573892,3.430418 -1.866019,3.317369 -2.096367,6.759809 -2.096367,10.481835 0,1.207 -0.176884,2.42703 0,3.620998 0.36456,2.46078 3.827367,3.994508 5.526786,4.955049 0.547478,0.309444 1.85731,0.985213 1.334052,1.334052 -1.192994,0.795329 -10.182464,3.72979 -11.434729,2.477525 -0.656966,-0.656966 -0.571737,-1.01113 -0.571737,-1.71521"
           class="UnoptimicedTransforms"
           transform="matrix(0.78099174,0,0,0.78099174,58.481939,20.342975)" /><rect
           style="fill:#eaeaea;fill-opacity:1;stroke:none;stroke-width:2.83109;stroke-linecap:round;stroke-linejoin:round;stroke-dasharray:none;stroke-opacity:1;paint-order:stroke fill markers;filter:url(#filter23388)"
           id="rect27409"
           width="417.83057"
           height="189"
           x="75.339294"
           y="28.242641"
           ry="12.495868"
           transform="matrix(0.67494518,0,0,1,23.305881,0)" /><rect
           style="fill:#1a1d1d;fill-opacity:1;stroke:none;stroke-width:2.3204;stroke-linecap:round;stroke-linejoin:round;stroke-dasharray:none;stroke-opacity:1;paint-order:stroke fill markers"
           id="rect27411"
           width="280.68469"
           height="189"
           x="72.510864"
           y="24"
           ry="12.495868" /><rect
           style="mix-blend-mode:normal;fill:#000000;fill-opacity:1;stroke:none;stroke-width:2.83109;stroke-linecap:round;stroke-linejoin:round;stroke-dasharray:none;stroke-opacity:1;paint-order:stroke fill markers;filter:url(#filter23382)"
           id="rect27413"
           width="417.83057"
           height="189"
           x="67.632187"
           y="18.707108"
           ry="12.495868"
           transform="matrix(0.67955844,0,0,1,19.87119,0)" /><rect
           style="fill:#313639;fill-opacity:1;stroke:none;stroke-width:2.32612;stroke-linecap:round;stroke-linejoin:round;stroke-dasharray:none;stroke-opacity:1;paint-order:stroke fill markers"
           id="rect27415"
           width="282.06998"
           height="189"
           x="65.510864"
           y="18"
           ry="12.495868" /><path
           style="fill:#6041ef;fill-opacity:1;stroke:#6a63a4;stroke-width:4.6715;stroke-linecap:round;stroke-linejoin:round;stroke-opacity:1"
           d="M 6.8608374,58.888855 Z"
           id="path27417"
           transform="matrix(0.78099174,0,0,0.78099174,58.481939,20.342975)"
           inkscape:original-d="M 6.8608374,58.888855 21.535406,72.038793"
           inkscape:path-effect="#path-effect27609;#path-effect27613"
           class="UnoptimicedTransforms" /><g
           id="g28110"
           transform="matrix(1.3433192,0,0,1.4486149,-128.56912,-111.50314)"
           style="mix-blend-mode:normal;fill:#000000;fill-opacity:1;stroke:#000000;stroke-opacity:1;filter:url(#filter28112)"><path
             id="path28106"
             style="fill:#000000;fill-opacity:1;stroke:#000000;stroke-width:9.5;stroke-linecap:round;stroke-linejoin:round;stroke-dasharray:none;stroke-opacity:1"
             d="m 269.99021,109.83579 -3.93945,0.008 c -2.16744,0.004 -4.23988,0.19522 -4.60352,0.42578 -1.59635,1.01215 -2.18356,9.494 -0.79492,11.47657 1.00923,1.44087 3.90792,3.27404 6.74609,4.26757 2.41708,0.84614 4.86858,1.02424 5.81641,0.42188 1.00806,-0.64062 2.14558,-3.93573 2.14258,-6.20899 -0.005,-3.55396 -0.95725,-5.98068 -3.24024,-8.26367 z m 31.77344,9.70117 -2.96094,0.0762 c -1.62926,0.0418 -3.05163,0.16431 -3.16016,0.27344 -0.10853,0.10913 -0.42469,1.84413 -0.70312,3.85547 -0.77714,5.61418 -2.1022,7.01166 -8.65039,9.11719 l -3.44727,1.10742 0.2168,4.31055 c 0.11916,2.37019 0.40336,4.27748 0.63281,4.23828 4.20486,-0.71743 4.52052,-0.70951 5.5625,0.16601 1.27249,1.06921 1.28167,1.22496 1.1582,18.6543 -0.11696,16.5103 0.34306,18.03525 6.07032,20.09766 2.32509,0.83727 3.68049,0.91842 11.81836,0.70703 5.05539,-0.13131 9.40382,-0.4507 9.66406,-0.71094 0.50507,-0.50507 -1.41917,-5.59375 -2.11524,-5.59375 -0.21216,0 -1.88566,0.46312 -3.71875,1.0293 -6.21138,1.9185 -7.92854,0.76806 -9.61914,-6.43946 -1.09999,-4.68954 -1.28084,-21.98746 -0.26562,-25.38867 l 0.61133,-2.04883 6.77539,-0.33984 c 3.72701,-0.18705 7.01015,-0.19552 7.29492,-0.0195 0.34583,0.21401 0.46191,-1.08934 0.34961,-3.93359 l -0.16797,-4.25391 -6.76367,0.26758 -6.76172,0.26562 -0.70703,-1.44336 c -0.45257,-0.92423 -0.78081,-3.70684 -0.91016,-7.7207 z m -46.26563,14.67188 -0.3457,2.68945 c -0.70725,5.48479 -0.80851,5.17043 1.72851,5.33594 1.46444,0.0955 2.79608,0.56578 3.75,1.32617 l 1.47852,1.17969 0.32422,8.92382 c 0.17779,4.90753 0.3465,12.20513 0.375,16.21876 0.0599,8.45318 -0.0398,8.66575 -4.32617,9.23437 l -2.62305,0.34766 v 2.10156 c 0,1.15624 0.15065,2.25222 0.33398,2.43555 0.18334,0.18334 5.69584,0.33398 12.25,0.33398 h 11.91602 v -1.96875 c 0,-1.95254 -0.0191,-1.972 -2.26367,-2.30859 -1.43428,-0.21509 -2.44462,-0.67627 -2.75586,-1.25782 -0.27019,-0.50486 -0.62824,-6.04739 -0.79688,-12.3164 -0.28714,-10.67459 -0.0247,-16.38844 1.26368,-27.39844 0.22521,-1.925 0.3113,-3.6125 0.18945,-3.75 -0.12185,-0.1375 -2.84694,-0.25748 -6.05469,-0.26758 -3.20774,-0.0101 -7.7688,-0.2086 -10.13672,-0.43945 z m -27.42969,1.22851 c -10.8056,0.0875 -22.02811,2.8472 -25.62695,6.56641 -4.33556,4.48059 -5.71142,15.0176 -2.61523,20.02734 0.55472,0.89755 2.25214,2.77052 3.77148,4.16211 1.51934,1.3916 2.76172,2.82213 2.76172,3.17774 0,0.35561 -1.0576,1.56078 -2.34961,2.67968 -5.29359,4.58431 -6.15039,5.59969 -6.15039,7.28321 0,2.10741 2.40094,6.48847 3.85938,7.04297 1.58331,0.60198 1.43255,1.0514 -0.73633,2.20898 -2.27871,1.21619 -4.12305,4.57525 -4.12305,7.50781 0,2.66197 2.12279,6.90352 4.27734,8.54688 1.95036,1.48761 4.8508,2.00859 14.72266,2.64453 3.7125,0.23911 9.1125,0.32544 12,0.1914 4.67176,-0.21688 5.7181,-0.44787 9.5,-2.10156 4.9598,-2.16874 5.78433,-3.1366 7.78125,-9.13281 1.22432,-3.6763 1.29335,-4.27583 0.76563,-6.59961 -0.31925,-1.40572 -1.19026,-3.66398 -1.9375,-5.01758 -2.39786,-4.34352 -5.80912,-5.28015 -19.22657,-5.28515 -10.01965,-0.003 -12.61835,-0.52404 -13.36914,-2.67774 -0.77097,-2.21162 -0.63506,-3.12976 0.69141,-4.67383 l 1.20508,-1.40234 8.19726,-0.25 8.19727,-0.25 3.72265,-1.8418 c 2.04752,-1.01262 4.36686,-2.51347 5.1543,-3.33593 1.8,-1.88008 2.80005,-5.92682 2.81055,-11.37305 0.007,-3.36977 -0.20228,-4.44458 -1.24219,-6.40039 -0.6875,-1.29301 -1.25,-2.65171 -1.25,-3.01758 0,-0.89796 1.60536,-1.26544 5.54688,-1.27344 l 3.29492,-0.008 0.10547,-3.25 c 0.0771,-2.38237 -0.0674,-3.25463 -0.54493,-3.26953 -3.33062,-0.10389 -10.57556,-0.47539 -14.61132,-0.74805 -1.50325,-0.10156 -3.03838,-0.14335 -4.58204,-0.13086 z m -8.50195,8.39844 c 3.84763,-6.7e-4 4.74487,0.17058 6.58008,1.24609 2.80793,1.64556 4.21289,3.97586 4.21289,6.98829 0,3.29449 -1.25626,5.63358 -3.9375,7.33398 -2.37689,1.50738 -5.33588,1.79696 -9.69922,0.95117 -4.83073,-0.93639 -7.65074,-7.41519 -5.66797,-13.01953 0.9267,-2.61932 3.06536,-3.49905 8.51172,-3.5 z m -5.43164,45.12695 c 1.36146,-0.009 3.1053,0.0466 5.36719,0.13477 13.90468,0.54225 15.63711,1.15773 15.22851,5.41016 -0.32292,3.36067 -2.57054,5.6095 -6.31445,6.31835 -7.5317,1.42604 -16.49277,-0.23755 -19.30859,-3.58398 -1.41726,-1.68432 -1.56215,-3.1889 -0.54102,-5.63281 0.84278,-2.01706 1.48398,-2.61994 5.56836,-2.64649 z" /><path
             id="path28108"
             style="fill:#000000;fill-opacity:1;stroke:#000000;stroke-width:3;stroke-linecap:round;stroke-linejoin:round;stroke-dasharray:none;stroke-opacity:1"
             d="m 269.99021,109.83579 -3.93945,0.008 c -2.16744,0.004 -4.23988,0.19522 -4.60352,0.42578 -1.59635,1.01215 -2.18356,9.494 -0.79492,11.47657 1.00923,1.44087 3.90792,3.27404 6.74609,4.26757 2.41708,0.84614 4.86858,1.02424 5.81641,0.42188 1.00806,-0.64062 2.14558,-3.93573 2.14258,-6.20899 -0.005,-3.55396 -0.95725,-5.98068 -3.24024,-8.26367 z m 31.77344,9.70117 -2.96094,0.0762 c -1.62926,0.0418 -3.05163,0.16431 -3.16016,0.27344 -0.10853,0.10913 -0.42469,1.84413 -0.70312,3.85547 -0.77714,5.61418 -2.1022,7.01166 -8.65039,9.11719 l -3.44727,1.10742 0.2168,4.31055 c 0.11916,2.37019 0.40336,4.27748 0.63281,4.23828 4.20486,-0.71743 4.52052,-0.70951 5.5625,0.16601 1.27249,1.06921 1.28167,1.22496 1.1582,18.6543 -0.11696,16.5103 0.34306,18.03525 6.07032,20.09766 2.32509,0.83727 3.68049,0.91842 11.81836,0.70703 5.05539,-0.13131 9.40382,-0.4507 9.66406,-0.71094 0.50507,-0.50507 -1.41917,-5.59375 -2.11524,-5.59375 -0.21216,0 -1.88566,0.46312 -3.71875,1.0293 -6.21138,1.9185 -7.92854,0.76806 -9.61914,-6.43946 -1.09999,-4.68954 -1.28084,-21.98746 -0.26562,-25.38867 l 0.61133,-2.04883 6.77539,-0.33984 c 3.72701,-0.18705 7.01015,-0.19552 7.29492,-0.0195 0.34583,0.21401 0.46191,-1.08934 0.34961,-3.93359 l -0.16797,-4.25391 -6.76367,0.26758 -6.76172,0.26562 -0.70703,-1.44336 c -0.45257,-0.92423 -0.78081,-3.70684 -0.91016,-7.7207 z m -46.26563,14.67188 -0.3457,2.68945 c -0.70725,5.48479 -0.80851,5.17043 1.72851,5.33594 1.46444,0.0955 2.79608,0.56578 3.75,1.32617 l 1.47852,1.17969 0.32422,8.92382 c 0.17779,4.90753 0.3465,12.20513 0.375,16.21876 0.0599,8.45318 -0.0398,8.66575 -4.32617,9.23437 l -2.62305,0.34766 v 2.10156 c 0,1.15624 0.15065,2.25222 0.33398,2.43555 0.18334,0.18334 5.69584,0.33398 12.25,0.33398 h 11.91602 v -1.96875 c 0,-1.95254 -0.0191,-1.972 -2.26367,-2.30859 -1.43428,-0.21509 -2.44462,-0.67627 -2.75586,-1.25782 -0.27019,-0.50486 -0.62824,-6.04739 -0.79688,-12.3164 -0.28714,-10.67459 -0.0247,-16.38844 1.26368,-27.39844 0.22521,-1.925 0.3113,-3.6125 0.18945,-3.75 -0.12185,-0.1375 -2.84694,-0.25748 -6.05469,-0.26758 -3.20774,-0.0101 -7.7688,-0.2086 -10.13672,-0.43945 z m -27.42969,1.22851 c -10.8056,0.0875 -22.02811,2.8472 -25.62695,6.56641 -4.33556,4.48059 -5.71142,15.0176 -2.61523,20.02734 0.55472,0.89755 2.25214,2.77052 3.77148,4.16211 1.51934,1.3916 2.76172,2.82213 2.76172,3.17774 0,0.35561 -1.0576,1.56078 -2.34961,2.67968 -5.29359,4.58431 -6.15039,5.59969 -6.15039,7.28321 0,2.10741 2.40094,6.48847 3.85938,7.04297 1.58331,0.60198 1.43255,1.0514 -0.73633,2.20898 -2.27871,1.21619 -4.12305,4.57525 -4.12305,7.50781 0,2.66197 2.12279,6.90352 4.27734,8.54688 1.95036,1.48761 4.8508,2.00859 14.72266,2.64453 3.7125,0.23911 9.1125,0.32544 12,0.1914 4.67176,-0.21688 5.7181,-0.44787 9.5,-2.10156 4.9598,-2.16874 5.78433,-3.1366 7.78125,-9.13281 1.22432,-3.6763 1.29335,-4.27583 0.76563,-6.59961 -0.31925,-1.40572 -1.19026,-3.66398 -1.9375,-5.01758 -2.39786,-4.34352 -5.80912,-5.28015 -19.22657,-5.28515 -10.01965,-0.003 -12.61835,-0.52404 -13.36914,-2.67774 -0.77097,-2.21162 -0.63506,-3.12976 0.69141,-4.67383 l 1.20508,-1.40234 8.19726,-0.25 8.19727,-0.25 3.72265,-1.8418 c 2.04752,-1.01262 4.36686,-2.51347 5.1543,-3.33593 1.8,-1.88008 2.80005,-5.92682 2.81055,-11.37305 0.007,-3.36977 -0.20228,-4.44458 -1.24219,-6.40039 -0.6875,-1.29301 -1.25,-2.65171 -1.25,-3.01758 0,-0.89796 1.60536,-1.26544 5.54688,-1.27344 l 3.29492,-0.008 0.10547,-3.25 c 0.0771,-2.38237 -0.0674,-3.25463 -0.54493,-3.26953 -3.33062,-0.10389 -10.57556,-0.47539 -14.61132,-0.74805 -1.50325,-0.10156 -3.03838,-0.14335 -4.58204,-0.13086 z m -8.50195,8.39844 c 3.84763,-6.7e-4 4.74487,0.17058 6.58008,1.24609 2.80793,1.64556 4.21289,3.97586 4.21289,6.98829 0,3.29449 -1.25626,5.63358 -3.9375,7.33398 -2.37689,1.50738 -5.33588,1.79696 -9.69922,0.95117 -4.83073,-0.93639 -7.65074,-7.41519 -5.66797,-13.01953 0.9267,-2.61932 3.06536,-3.49905 8.51172,-3.5 z m -5.43164,45.12695 c 1.36146,-0.009 3.1053,0.0466 5.36719,0.13477 13.90468,0.54225 15.63711,1.15773 15.22851,5.41016 -0.32292,3.36067 -2.57054,5.6095 -6.31445,6.31835 -7.5317,1.42604 -16.49277,-0.23755 -19.30859,-3.58398 -1.41726,-1.68432 -1.56215,-3.1889 -0.54102,-5.63281 0.84278,-2.01706 1.48398,-2.61994 5.56836,-2.64649 z" /></g><g
           id="g27485"
           transform="matrix(1.3433192,0,0,1.4486149,-136.40563,-117.38052)"><path
             id="path27481"
             style="fill:#ee562f;fill-opacity:1;stroke:#f9f5f6;stroke-width:9.5;stroke-linecap:round;stroke-linejoin:round;stroke-dasharray:none;stroke-opacity:1"
             d="m 269.99021,109.83579 -3.93945,0.008 c -2.16744,0.004 -4.23988,0.19522 -4.60352,0.42578 -1.59635,1.01215 -2.18356,9.494 -0.79492,11.47657 1.00923,1.44087 3.90792,3.27404 6.74609,4.26757 2.41708,0.84614 4.86858,1.02424 5.81641,0.42188 1.00806,-0.64062 2.14558,-3.93573 2.14258,-6.20899 -0.005,-3.55396 -0.95725,-5.98068 -3.24024,-8.26367 z m 31.77344,9.70117 -2.96094,0.0762 c -1.62926,0.0418 -3.05163,0.16431 -3.16016,0.27344 -0.10853,0.10913 -0.42469,1.84413 -0.70312,3.85547 -0.77714,5.61418 -2.1022,7.01166 -8.65039,9.11719 l -3.44727,1.10742 0.2168,4.31055 c 0.11916,2.37019 0.40336,4.27748 0.63281,4.23828 4.20486,-0.71743 4.52052,-0.70951 5.5625,0.16601 1.27249,1.06921 1.28167,1.22496 1.1582,18.6543 -0.11696,16.5103 0.34306,18.03525 6.07032,20.09766 2.32509,0.83727 3.68049,0.91842 11.81836,0.70703 5.05539,-0.13131 9.40382,-0.4507 9.66406,-0.71094 0.50507,-0.50507 -1.41917,-5.59375 -2.11524,-5.59375 -0.21216,0 -1.88566,0.46312 -3.71875,1.0293 -6.21138,1.9185 -7.92854,0.76806 -9.61914,-6.43946 -1.09999,-4.68954 -1.28084,-21.98746 -0.26562,-25.38867 l 0.61133,-2.04883 6.77539,-0.33984 c 3.72701,-0.18705 7.01015,-0.19552 7.29492,-0.0195 0.34583,0.21401 0.46191,-1.08934 0.34961,-3.93359 l -0.16797,-4.25391 -6.76367,0.26758 -6.76172,0.26562 -0.70703,-1.44336 c -0.45257,-0.92423 -0.78081,-3.70684 -0.91016,-7.7207 z m -46.26563,14.67188 -0.3457,2.68945 c -0.70725,5.48479 -0.80851,5.17043 1.72851,5.33594 1.46444,0.0955 2.79608,0.56578 3.75,1.32617 l 1.47852,1.17969 0.32422,8.92382 c 0.17779,4.90753 0.3465,12.20513 0.375,16.21876 0.0599,8.45318 -0.0398,8.66575 -4.32617,9.23437 l -2.62305,0.34766 v 2.10156 c 0,1.15624 0.15065,2.25222 0.33398,2.43555 0.18334,0.18334 5.69584,0.33398 12.25,0.33398 h 11.91602 v -1.96875 c 0,-1.95254 -0.0191,-1.972 -2.26367,-2.30859 -1.43428,-0.21509 -2.44462,-0.67627 -2.75586,-1.25782 -0.27019,-0.50486 -0.62824,-6.04739 -0.79688,-12.3164 -0.28714,-10.67459 -0.0247,-16.38844 1.26368,-27.39844 0.22521,-1.925 0.3113,-3.6125 0.18945,-3.75 -0.12185,-0.1375 -2.84694,-0.25748 -6.05469,-0.26758 -3.20774,-0.0101 -7.7688,-0.2086 -10.13672,-0.43945 z m -27.42969,1.22851 c -10.8056,0.0875 -22.02811,2.8472 -25.62695,6.56641 -4.33556,4.48059 -5.71142,15.0176 -2.61523,20.02734 0.55472,0.89755 2.25214,2.77052 3.77148,4.16211 1.51934,1.3916 2.76172,2.82213 2.76172,3.17774 0,0.35561 -1.0576,1.56078 -2.34961,2.67968 -5.29359,4.58431 -6.15039,5.59969 -6.15039,7.28321 0,2.10741 2.40094,6.48847 3.85938,7.04297 1.58331,0.60198 1.43255,1.0514 -0.73633,2.20898 -2.27871,1.21619 -4.12305,4.57525 -4.12305,7.50781 0,2.66197 2.12279,6.90352 4.27734,8.54688 1.95036,1.48761 4.8508,2.00859 14.72266,2.64453 3.7125,0.23911 9.1125,0.32544 12,0.1914 4.67176,-0.21688 5.7181,-0.44787 9.5,-2.10156 4.9598,-2.16874 5.78433,-3.1366 7.78125,-9.13281 1.22432,-3.6763 1.29335,-4.27583 0.76563,-6.59961 -0.31925,-1.40572 -1.19026,-3.66398 -1.9375,-5.01758 -2.39786,-4.34352 -5.80912,-5.28015 -19.22657,-5.28515 -10.01965,-0.003 -12.61835,-0.52404 -13.36914,-2.67774 -0.77097,-2.21162 -0.63506,-3.12976 0.69141,-4.67383 l 1.20508,-1.40234 8.19726,-0.25 8.19727,-0.25 3.72265,-1.8418 c 2.04752,-1.01262 4.36686,-2.51347 5.1543,-3.33593 1.8,-1.88008 2.80005,-5.92682 2.81055,-11.37305 0.007,-3.36977 -0.20228,-4.44458 -1.24219,-6.40039 -0.6875,-1.29301 -1.25,-2.65171 -1.25,-3.01758 0,-0.89796 1.60536,-1.26544 5.54688,-1.27344 l 3.29492,-0.008 0.10547,-3.25 c 0.0771,-2.38237 -0.0674,-3.25463 -0.54493,-3.26953 -3.33062,-0.10389 -10.57556,-0.47539 -14.61132,-0.74805 -1.50325,-0.10156 -3.03838,-0.14335 -4.58204,-0.13086 z m -8.50195,8.39844 c 3.84763,-6.7e-4 4.74487,0.17058 6.58008,1.24609 2.80793,1.64556 4.21289,3.97586 4.21289,6.98829 0,3.29449 -1.25626,5.63358 -3.9375,7.33398 -2.37689,1.50738 -5.33588,1.79696 -9.69922,0.95117 -4.83073,-0.93639 -7.65074,-7.41519 -5.66797,-13.01953 0.9267,-2.61932 3.06536,-3.49905 8.51172,-3.5 z m -5.43164,45.12695 c 1.36146,-0.009 3.1053,0.0466 5.36719,0.13477 13.90468,0.54225 15.63711,1.15773 15.22851,5.41016 -0.32292,3.36067 -2.57054,5.6095 -6.31445,6.31835 -7.5317,1.42604 -16.49277,-0.23755 -19.30859,-3.58398 -1.41726,-1.68432 -1.56215,-3.1889 -0.54102,-5.63281 0.84278,-2.01706 1.48398,-2.61994 5.56836,-2.64649 z" /><path
             id="path27483"
             style="fill:#ee562f;fill-opacity:1;stroke:#313639;stroke-width:3;stroke-linecap:round;stroke-linejoin:round;stroke-dasharray:none;stroke-opacity:1"
             d="m 269.99021,109.83579 -3.93945,0.008 c -2.16744,0.004 -4.23988,0.19522 -4.60352,0.42578 -1.59635,1.01215 -2.18356,9.494 -0.79492,11.47657 1.00923,1.44087 3.90792,3.27404 6.74609,4.26757 2.41708,0.84614 4.86858,1.02424 5.81641,0.42188 1.00806,-0.64062 2.14558,-3.93573 2.14258,-6.20899 -0.005,-3.55396 -0.95725,-5.98068 -3.24024,-8.26367 z m 31.77344,9.70117 -2.96094,0.0762 c -1.62926,0.0418 -3.05163,0.16431 -3.16016,0.27344 -0.10853,0.10913 -0.42469,1.84413 -0.70312,3.85547 -0.77714,5.61418 -2.1022,7.01166 -8.65039,9.11719 l -3.44727,1.10742 0.2168,4.31055 c 0.11916,2.37019 0.40336,4.27748 0.63281,4.23828 4.20486,-0.71743 4.52052,-0.70951 5.5625,0.16601 1.27249,1.06921 1.28167,1.22496 1.1582,18.6543 -0.11696,16.5103 0.34306,18.03525 6.07032,20.09766 2.32509,0.83727 3.68049,0.91842 11.81836,0.70703 5.05539,-0.13131 9.40382,-0.4507 9.66406,-0.71094 0.50507,-0.50507 -1.41917,-5.59375 -2.11524,-5.59375 -0.21216,0 -1.88566,0.46312 -3.71875,1.0293 -6.21138,1.9185 -7.92854,0.76806 -9.61914,-6.43946 -1.09999,-4.68954 -1.28084,-21.98746 -0.26562,-25.38867 l 0.61133,-2.04883 6.77539,-0.33984 c 3.72701,-0.18705 7.01015,-0.19552 7.29492,-0.0195 0.34583,0.21401 0.46191,-1.08934 0.34961,-3.93359 l -0.16797,-4.25391 -6.76367,0.26758 -6.76172,0.26562 -0.70703,-1.44336 c -0.45257,-0.92423 -0.78081,-3.70684 -0.91016,-7.7207 z m -46.26563,14.67188 -0.3457,2.68945 c -0.70725,5.48479 -0.80851,5.17043 1.72851,5.33594 1.46444,0.0955 2.79608,0.56578 3.75,1.32617 l 1.47852,1.17969 0.32422,8.92382 c 0.17779,4.90753 0.3465,12.20513 0.375,16.21876 0.0599,8.45318 -0.0398,8.66575 -4.32617,9.23437 l -2.62305,0.34766 v 2.10156 c 0,1.15624 0.15065,2.25222 0.33398,2.43555 0.18334,0.18334 5.69584,0.33398 12.25,0.33398 h 11.91602 v -1.96875 c 0,-1.95254 -0.0191,-1.972 -2.26367,-2.30859 -1.43428,-0.21509 -2.44462,-0.67627 -2.75586,-1.25782 -0.27019,-0.50486 -0.62824,-6.04739 -0.79688,-12.3164 -0.28714,-10.67459 -0.0247,-16.38844 1.26368,-27.39844 0.22521,-1.925 0.3113,-3.6125 0.18945,-3.75 -0.12185,-0.1375 -2.84694,-0.25748 -6.05469,-0.26758 -3.20774,-0.0101 -7.7688,-0.2086 -10.13672,-0.43945 z m -27.42969,1.22851 c -10.8056,0.0875 -22.02811,2.8472 -25.62695,6.56641 -4.33556,4.48059 -5.71142,15.0176 -2.61523,20.02734 0.55472,0.89755 2.25214,2.77052 3.77148,4.16211 1.51934,1.3916 2.76172,2.82213 2.76172,3.17774 0,0.35561 -1.0576,1.56078 -2.34961,2.67968 -5.29359,4.58431 -6.15039,5.59969 -6.15039,7.28321 0,2.10741 2.40094,6.48847 3.85938,7.04297 1.58331,0.60198 1.43255,1.0514 -0.73633,2.20898 -2.27871,1.21619 -4.12305,4.57525 -4.12305,7.50781 0,2.66197 2.12279,6.90352 4.27734,8.54688 1.95036,1.48761 4.8508,2.00859 14.72266,2.64453 3.7125,0.23911 9.1125,0.32544 12,0.1914 4.67176,-0.21688 5.7181,-0.44787 9.5,-2.10156 4.9598,-2.16874 5.78433,-3.1366 7.78125,-9.13281 1.22432,-3.6763 1.29335,-4.27583 0.76563,-6.59961 -0.31925,-1.40572 -1.19026,-3.66398 -1.9375,-5.01758 -2.39786,-4.34352 -5.80912,-5.28015 -19.22657,-5.28515 -10.01965,-0.003 -12.61835,-0.52404 -13.36914,-2.67774 -0.77097,-2.21162 -0.63506,-3.12976 0.69141,-4.67383 l 1.20508,-1.40234 8.19726,-0.25 8.19727,-0.25 3.72265,-1.8418 c 2.04752,-1.01262 4.36686,-2.51347 5.1543,-3.33593 1.8,-1.88008 2.80005,-5.92682 2.81055,-11.37305 0.007,-3.36977 -0.20228,-4.44458 -1.24219,-6.40039 -0.6875,-1.29301 -1.25,-2.65171 -1.25,-3.01758 0,-0.89796 1.60536,-1.26544 5.54688,-1.27344 l 3.29492,-0.008 0.10547,-3.25 c 0.0771,-2.38237 -0.0674,-3.25463 -0.54493,-3.26953 -3.33062,-0.10389 -10.57556,-0.47539 -14.61132,-0.74805 -1.50325,-0.10156 -3.03838,-0.14335 -4.58204,-0.13086 z m -8.50195,8.39844 c 3.84763,-6.7e-4 4.74487,0.17058 6.58008,1.24609 2.80793,1.64556 4.21289,3.97586 4.21289,6.98829 0,3.29449 -1.25626,5.63358 -3.9375,7.33398 -2.37689,1.50738 -5.33588,1.79696 -9.69922,0.95117 -4.83073,-0.93639 -7.65074,-7.41519 -5.66797,-13.01953 0.9267,-2.61932 3.06536,-3.49905 8.51172,-3.5 z m -5.43164,45.12695 c 1.36146,-0.009 3.1053,0.0466 5.36719,0.13477 13.90468,0.54225 15.63711,1.15773 15.22851,5.41016 -0.32292,3.36067 -2.57054,5.6095 -6.31445,6.31835 -7.5317,1.42604 -16.49277,-0.23755 -19.30859,-3.58398 -1.41726,-1.68432 -1.56215,-3.1889 -0.54102,-5.63281 0.84278,-2.01706 1.48398,-2.61994 5.56836,-2.64649 z" /></g><g
           id="g27567"
           transform="matrix(0.78099174,0,0,0.78099174,59.481939,27.882436)"
           style="mix-blend-mode:normal;fill:#000000;fill-opacity:1;stroke:#000000;stroke-opacity:1;filter:url(#filter23418)"><g
             id="g27547"
             style="fill:#000000;fill-opacity:1;stroke:#000000;stroke-opacity:1"><path
               id="path27543"
               style="fill:#000000;fill-opacity:1;stroke:#000000;stroke-width:3.625;stroke-linecap:round;stroke-linejoin:round;stroke-opacity:1;paint-order:stroke fill markers"
               d="M 33.25,45.125 A 4.875,6.625 0 0 1 28.375,51.75 4.875,6.625 0 0 1 23.5,45.125 4.875,6.625 0 0 1 28.375,38.5 4.875,6.625 0 0 1 33.25,45.125 Z" /><path
               style="fill:#000000;fill-opacity:1;stroke:#000000;stroke-width:3.18627;stroke-linecap:round;stroke-linejoin:round;stroke-dasharray:none;stroke-opacity:1"
               d="m 28.100216,46.540421 c 0.04011,0.07085 -0.755957,1.727777 -2.971264,3.00689 -2.215307,1.279113 -2.465006,2.141091 -5.455716,3.658069 -2.99071,1.516978 -5.069963,3.931635 -10.0731566,4.687168 -5.0031935,0.755533 -10.8505351,0.630367 -14.3505517,-0.196989 -3.5000166,-0.827356 -4.2944211,-1.417732 -5.8621627,-2.457816 -1.567742,-1.040084 -2.751834,-2.380487 -3.388984,-3.269354 -0.63715,-0.888867 -0.113599,-0.01594 -0.845824,-1.345941 -0.732225,-1.329998 -2.57561,-6.268132 -2.176018,-7.457812 0.399592,-1.189681 -0.340703,1.014353 2e-6,-5e-6 0.340704,-1.014358 0.608158,-4.225887 1.795307,-5.935033 1.187149,-1.709146 2.728262,-3.002856 4.595162,-4.090333 1.8668996,-1.087477 2.6078446,-1.555242 6.3535415,-2.606683 3.74569691,-1.051441 7.4214981,-1.689813 10.7357264,-1.569677 3.3142283,0.120136 0.1778274,-0.01492 1.366556,0.308704 1.1887286,0.323622 1.642064,0.617078 1.605049,0.779703 -0.037015,0.162625 -0.046334,0.226139 -1.619483,0.05883 -1.5731491,-0.167309 1.9993422,0.173017 -1.256658,0.230474 -3.2560002,0.05746 -6.73901063,0.943285 -10.346442,2.055562 -3.6074314,1.112277 -4.2862221,1.546013 -6.0158127,2.604771 -1.7295902,1.058758 -3.1117902,2.242679 -4.0721052,3.685909 -0.960315,1.44323 -1.401607,3.800996 -1.401607,4.652247 0,0.851251 0,-1.030035 0,4e-6 0,1.030039 1.240551,5.006994 1.865679,6.186796 0.625128,1.179802 0.156949,0.361723 0.674072,1.081523 0.517123,0.7198 1.490355,1.814707 2.8473464,2.73542 1.3569912,0.920713 2.0249465,1.427863 5.3216369,2.250597 3.2966904,0.822734 8.930968,1.006502 13.8639077,0.388975 4.93294,-0.617527 7.378902,-3.333374 10.569592,-4.639245 3.19069,-1.305871 2.497479,-1.644393 4.756045,-2.693524 2.258566,-1.049131 3.446791,-2.178775 3.486162,-2.109233 0.03937,0.06954 -0.04011,-0.07084 0,3e-6 z"
               id="path27545"
               sodipodi:nodetypes="zzzzzzzzzzzzzzzzzzzzzzzzzzzzzzzz" /></g><g
             id="g27553"
             transform="translate(0,44.606653)"
             style="fill:#000000;fill-opacity:1;stroke:#000000;stroke-opacity:1"><path
               id="path27549"
               style="fill:#000000;fill-opacity:1;stroke:#000000;stroke-width:3.625;stroke-linecap:round;stroke-linejoin:round;stroke-opacity:1;paint-order:stroke fill markers"
               d="M 33.25,45.125 A 4.875,6.625 0 0 1 28.375,51.75 4.875,6.625 0 0 1 23.5,45.125 4.875,6.625 0 0 1 28.375,38.5 4.875,6.625 0 0 1 33.25,45.125 Z" /><path
               style="fill:#000000;fill-opacity:1;stroke:#000000;stroke-width:3.18627;stroke-linecap:round;stroke-linejoin:round;stroke-dasharray:none;stroke-opacity:1"
               d="m 28.100216,46.540421 c 0.04011,0.07085 -0.755957,1.727777 -2.971264,3.00689 -2.215307,1.279113 -2.465006,2.141091 -5.455716,3.658069 -2.99071,1.516978 -5.069963,3.931635 -10.0731566,4.687168 -5.0031935,0.755533 -10.8505351,0.630367 -14.3505517,-0.196989 -3.5000166,-0.827356 -4.2944211,-1.417732 -5.8621627,-2.457816 -1.567742,-1.040084 -2.751834,-2.380487 -3.388984,-3.269354 -0.63715,-0.888867 -0.113599,-0.01594 -0.845824,-1.345941 -0.732225,-1.329998 -2.57561,-6.268132 -2.176018,-7.457812 0.399592,-1.189681 -0.340703,1.014353 2e-6,-5e-6 0.340704,-1.014358 0.608158,-4.225887 1.795307,-5.935033 1.187149,-1.709146 2.728262,-3.002856 4.595162,-4.090333 1.8668996,-1.087477 2.6078446,-1.555242 6.3535415,-2.606683 3.74569691,-1.051441 7.4214981,-1.689813 10.7357264,-1.569677 3.3142283,0.120136 0.1778274,-0.01492 1.366556,0.308704 1.1887286,0.323622 1.642064,0.617078 1.605049,0.779703 -0.037015,0.162625 -0.046334,0.226139 -1.619483,0.05883 -1.5731491,-0.167309 1.9993422,0.173017 -1.256658,0.230474 -3.2560002,0.05746 -6.73901063,0.943285 -10.346442,2.055562 -3.6074314,1.112277 -4.2862221,1.546013 -6.0158127,2.604771 -1.7295902,1.058758 -3.1117902,2.242679 -4.0721052,3.685909 -0.960315,1.44323 -1.401607,3.800996 -1.401607,4.652247 0,0.851251 0,-1.030035 0,4e-6 0,1.030039 1.240551,5.006994 1.865679,6.186796 0.625128,1.179802 0.156949,0.361723 0.674072,1.081523 0.517123,0.7198 1.490355,1.814707 2.8473464,2.73542 1.3569912,0.920713 2.0249465,1.427863 5.3216369,2.250597 3.2966904,0.822734 8.930968,1.006502 13.8639077,0.388975 4.93294,-0.617527 7.378902,-3.333374 10.569592,-4.639245 3.19069,-1.305871 2.497479,-1.644393 4.756045,-2.693524 2.258566,-1.049131 3.446791,-2.178775 3.486162,-2.109233 0.03937,0.06954 -0.04011,-0.07084 0,3e-6 z"
               id="path27551"
               sodipodi:nodetypes="zzzzzzzzzzzzzzzzzzzzzzzzzzzzzzzz" /></g><g
             id="g27559"
             transform="translate(0,89.213307)"
             style="fill:#000000;fill-opacity:1;stroke:#000000;stroke-opacity:1"><path
               id="path27555"
               style="fill:#000000;fill-opacity:1;stroke:#000000;stroke-width:3.625;stroke-linecap:round;stroke-linejoin:round;stroke-opacity:1;paint-order:stroke fill markers"
               d="M 33.25,45.125 A 4.875,6.625 0 0 1 28.375,51.75 4.875,6.625 0 0 1 23.5,45.125 4.875,6.625 0 0 1 28.375,38.5 4.875,6.625 0 0 1 33.25,45.125 Z" /><path
               style="fill:#000000;fill-opacity:1;stroke:#000000;stroke-width:3.18627;stroke-linecap:round;stroke-linejoin:round;stroke-dasharray:none;stroke-opacity:1"
               d="m 28.100216,46.540421 c 0.04011,0.07085 -0.755957,1.727777 -2.971264,3.00689 -2.215307,1.279113 -2.465006,2.141091 -5.455716,3.658069 -2.99071,1.516978 -5.069963,3.931635 -10.0731566,4.687168 -5.0031935,0.755533 -10.8505351,0.630367 -14.3505517,-0.196989 -3.5000166,-0.827356 -4.2944211,-1.417732 -5.8621627,-2.457816 -1.567742,-1.040084 -2.751834,-2.380487 -3.388984,-3.269354 -0.63715,-0.888867 -0.113599,-0.01594 -0.845824,-1.345941 -0.732225,-1.329998 -2.57561,-6.268132 -2.176018,-7.457812 0.399592,-1.189681 -0.340703,1.014353 2e-6,-5e-6 0.340704,-1.014358 0.608158,-4.225887 1.795307,-5.935033 1.187149,-1.709146 2.728262,-3.002856 4.595162,-4.090333 1.8668996,-1.087477 2.6078446,-1.555242 6.3535415,-2.606683 3.74569691,-1.051441 7.4214981,-1.689813 10.7357264,-1.569677 3.3142283,0.120136 0.1778274,-0.01492 1.366556,0.308704 1.1887286,0.323622 1.642064,0.617078 1.605049,0.779703 -0.037015,0.162625 -0.046334,0.226139 -1.619483,0.05883 -1.5731491,-0.167309 1.9993422,0.173017 -1.256658,0.230474 -3.2560002,0.05746 -6.73901063,0.943285 -10.346442,2.055562 -3.6074314,1.112277 -4.2862221,1.546013 -6.0158127,2.604771 -1.7295902,1.058758 -3.1117902,2.242679 -4.0721052,3.685909 -0.960315,1.44323 -1.401607,3.800996 -1.401607,4.652247 0,0.851251 0,-1.030035 0,4e-6 0,1.030039 1.240551,5.006994 1.865679,6.186796 0.625128,1.179802 0.156949,0.361723 0.674072,1.081523 0.517123,0.7198 1.490355,1.814707 2.8473464,2.73542 1.3569912,0.920713 2.0249465,1.427863 5.3216369,2.250597 3.2966904,0.822734 8.930968,1.006502 13.8639077,0.388975 4.93294,-0.617527 7.378902,-3.333374 10.569592,-4.639245 3.19069,-1.305871 2.497479,-1.644393 4.756045,-2.693524 2.258566,-1.049131 3.446791,-2.178775 3.486162,-2.109233 0.03937,0.06954 -0.04011,-0.07084 0,3e-6 z"
               id="path27557"
               sodipodi:nodetypes="zzzzzzzzzzzzzzzzzzzzzzzzzzzzzzzz" /></g><g
             id="g27565"
             transform="translate(0,133.81996)"
             style="fill:#000000;fill-opacity:1;stroke:#000000;stroke-opacity:1"><path
               id="path27561"
               style="fill:#000000;fill-opacity:1;stroke:#000000;stroke-width:3.625;stroke-linecap:round;stroke-linejoin:round;stroke-opacity:1;paint-order:stroke fill markers"
               d="M 33.25,45.125 A 4.875,6.625 0 0 1 28.375,51.75 4.875,6.625 0 0 1 23.5,45.125 4.875,6.625 0 0 1 28.375,38.5 4.875,6.625 0 0 1 33.25,45.125 Z" /><path
               style="fill:#000000;fill-opacity:1;stroke:#000000;stroke-width:3.18627;stroke-linecap:round;stroke-linejoin:round;stroke-dasharray:none;stroke-opacity:1"
               d="m 28.100216,46.540421 c 0.04011,0.07085 -0.755957,1.727777 -2.971264,3.00689 -2.215307,1.279113 -2.465006,2.141091 -5.455716,3.658069 -2.99071,1.516978 -5.069963,3.931635 -10.0731566,4.687168 -5.0031935,0.755533 -10.8505351,0.630367 -14.3505517,-0.196989 -3.5000166,-0.827356 -4.2944211,-1.417732 -5.8621627,-2.457816 -1.567742,-1.040084 -2.751834,-2.380487 -3.388984,-3.269354 -0.63715,-0.888867 -0.113599,-0.01594 -0.845824,-1.345941 -0.732225,-1.329998 -2.57561,-6.268132 -2.176018,-7.457812 0.399592,-1.189681 -0.340703,1.014353 2e-6,-5e-6 0.340704,-1.014358 0.608158,-4.225887 1.795307,-5.935033 1.187149,-1.709146 2.728262,-3.002856 4.595162,-4.090333 1.8668996,-1.087477 2.6078446,-1.555242 6.3535415,-2.606683 3.74569691,-1.051441 7.4214981,-1.689813 10.7357264,-1.569677 3.3142283,0.120136 0.1778274,-0.01492 1.366556,0.308704 1.1887286,0.323622 1.642064,0.617078 1.605049,0.779703 -0.037015,0.162625 -0.046334,0.226139 -1.619483,0.05883 -1.5731491,-0.167309 1.9993422,0.173017 -1.256658,0.230474 -3.2560002,0.05746 -6.73901063,0.943285 -10.346442,2.055562 -3.6074314,1.112277 -4.2862221,1.546013 -6.0158127,2.604771 -1.7295902,1.058758 -3.1117902,2.242679 -4.0721052,3.685909 -0.960315,1.44323 -1.401607,3.800996 -1.401607,4.652247 0,0.851251 0,-1.030035 0,4e-6 0,1.030039 1.240551,5.006994 1.865679,6.186796 0.625128,1.179802 0.156949,0.361723 0.674072,1.081523 0.517123,0.7198 1.490355,1.814707 2.8473464,2.73542 1.3569912,0.920713 2.0249465,1.427863 5.3216369,2.250597 3.2966904,0.822734 8.930968,1.006502 13.8639077,0.388975 4.93294,-0.617527 7.378902,-3.333374 10.569592,-4.639245 3.19069,-1.305871 2.497479,-1.644393 4.756045,-2.693524 2.258566,-1.049131 3.446791,-2.178775 3.486162,-2.109233 0.03937,0.06954 -0.04011,-0.07084 0,3e-6 z"
               id="path27563"
               sodipodi:nodetypes="zzzzzzzzzzzzzzzzzzzzzzzzzzzzzzzz" /></g></g><g
           id="g27593"
           transform="matrix(0.78099174,0,0,0.78099174,58.481939,26.132436)"><g
             id="g27573"><path
               id="path27569"
               style="fill:#121415;stroke-width:3.625;stroke-linecap:round;stroke-linejoin:round;paint-order:stroke fill markers"
               d="M 33.25,45.125 A 4.875,6.625 0 0 1 28.375,51.75 4.875,6.625 0 0 1 23.5,45.125 4.875,6.625 0 0 1 28.375,38.5 4.875,6.625 0 0 1 33.25,45.125 Z" /><path
               style="fill:#000000;fill-opacity:1;stroke:#ffffff;stroke-width:3.18627;stroke-linecap:round;stroke-linejoin:round;stroke-dasharray:none;stroke-opacity:1"
               d="m 28.100216,46.540421 c 0.04011,0.07085 -0.755957,1.727777 -2.971264,3.00689 -2.215307,1.279113 -2.465006,2.141091 -5.455716,3.658069 -2.99071,1.516978 -5.069963,3.931635 -10.0731566,4.687168 -5.0031935,0.755533 -10.8505351,0.630367 -14.3505517,-0.196989 -3.5000166,-0.827356 -4.2944211,-1.417732 -5.8621627,-2.457816 -1.567742,-1.040084 -2.751834,-2.380487 -3.388984,-3.269354 -0.63715,-0.888867 -0.113599,-0.01594 -0.845824,-1.345941 -0.732225,-1.329998 -2.57561,-6.268132 -2.176018,-7.457812 0.399592,-1.189681 -0.340703,1.014353 2e-6,-5e-6 0.340704,-1.014358 0.608158,-4.225887 1.795307,-5.935033 1.187149,-1.709146 2.728262,-3.002856 4.595162,-4.090333 1.8668996,-1.087477 2.6078446,-1.555242 6.3535415,-2.606683 3.74569691,-1.051441 7.4214981,-1.689813 10.7357264,-1.569677 3.3142283,0.120136 0.1778274,-0.01492 1.366556,0.308704 1.1887286,0.323622 1.642064,0.617078 1.605049,0.779703 -0.037015,0.162625 -0.046334,0.226139 -1.619483,0.05883 -1.5731491,-0.167309 1.9993422,0.173017 -1.256658,0.230474 -3.2560002,0.05746 -6.73901063,0.943285 -10.346442,2.055562 -3.6074314,1.112277 -4.2862221,1.546013 -6.0158127,2.604771 -1.7295902,1.058758 -3.1117902,2.242679 -4.0721052,3.685909 -0.960315,1.44323 -1.401607,3.800996 -1.401607,4.652247 0,0.851251 0,-1.030035 0,4e-6 0,1.030039 1.240551,5.006994 1.865679,6.186796 0.625128,1.179802 0.156949,0.361723 0.674072,1.081523 0.517123,0.7198 1.490355,1.814707 2.8473464,2.73542 1.3569912,0.920713 2.0249465,1.427863 5.3216369,2.250597 3.2966904,0.822734 8.930968,1.006502 13.8639077,0.388975 4.93294,-0.617527 7.378902,-3.333374 10.569592,-4.639245 3.19069,-1.305871 2.497479,-1.644393 4.756045,-2.693524 2.258566,-1.049131 3.446791,-2.178775 3.486162,-2.109233 0.03937,0.06954 -0.04011,-0.07084 0,3e-6 z"
               id="path27571"
               sodipodi:nodetypes="zzzzzzzzzzzzzzzzzzzzzzzzzzzzzzzz" /></g><g
             id="g27579"
             transform="translate(0,44.606653)"><path
               id="path27575"
               style="fill:#121415;stroke-width:3.625;stroke-linecap:round;stroke-linejoin:round;paint-order:stroke fill markers"
               d="M 33.25,45.125 A 4.875,6.625 0 0 1 28.375,51.75 4.875,6.625 0 0 1 23.5,45.125 4.875,6.625 0 0 1 28.375,38.5 4.875,6.625 0 0 1 33.25,45.125 Z" /><path
               style="fill:#000000;fill-opacity:1;stroke:#ffffff;stroke-width:3.18627;stroke-linecap:round;stroke-linejoin:round;stroke-dasharray:none;stroke-opacity:1"
               d="m 28.100216,46.540421 c 0.04011,0.07085 -0.755957,1.727777 -2.971264,3.00689 -2.215307,1.279113 -2.465006,2.141091 -5.455716,3.658069 -2.99071,1.516978 -5.069963,3.931635 -10.0731566,4.687168 -5.0031935,0.755533 -10.8505351,0.630367 -14.3505517,-0.196989 -3.5000166,-0.827356 -4.2944211,-1.417732 -5.8621627,-2.457816 -1.567742,-1.040084 -2.751834,-2.380487 -3.388984,-3.269354 -0.63715,-0.888867 -0.113599,-0.01594 -0.845824,-1.345941 -0.732225,-1.329998 -2.57561,-6.268132 -2.176018,-7.457812 0.399592,-1.189681 -0.340703,1.014353 2e-6,-5e-6 0.340704,-1.014358 0.608158,-4.225887 1.795307,-5.935033 1.187149,-1.709146 2.728262,-3.002856 4.595162,-4.090333 1.8668996,-1.087477 2.6078446,-1.555242 6.3535415,-2.606683 3.74569691,-1.051441 7.4214981,-1.689813 10.7357264,-1.569677 3.3142283,0.120136 0.1778274,-0.01492 1.366556,0.308704 1.1887286,0.323622 1.642064,0.617078 1.605049,0.779703 -0.037015,0.162625 -0.046334,0.226139 -1.619483,0.05883 -1.5731491,-0.167309 1.9993422,0.173017 -1.256658,0.230474 -3.2560002,0.05746 -6.73901063,0.943285 -10.346442,2.055562 -3.6074314,1.112277 -4.2862221,1.546013 -6.0158127,2.604771 -1.7295902,1.058758 -3.1117902,2.242679 -4.0721052,3.685909 -0.960315,1.44323 -1.401607,3.800996 -1.401607,4.652247 0,0.851251 0,-1.030035 0,4e-6 0,1.030039 1.240551,5.006994 1.865679,6.186796 0.625128,1.179802 0.156949,0.361723 0.674072,1.081523 0.517123,0.7198 1.490355,1.814707 2.8473464,2.73542 1.3569912,0.920713 2.0249465,1.427863 5.3216369,2.250597 3.2966904,0.822734 8.930968,1.006502 13.8639077,0.388975 4.93294,-0.617527 7.378902,-3.333374 10.569592,-4.639245 3.19069,-1.305871 2.497479,-1.644393 4.756045,-2.693524 2.258566,-1.049131 3.446791,-2.178775 3.486162,-2.109233 0.03937,0.06954 -0.04011,-0.07084 0,3e-6 z"
               id="path27577"
               sodipodi:nodetypes="zzzzzzzzzzzzzzzzzzzzzzzzzzzzzzzz" /></g><g
             id="g27585"
             transform="translate(0,89.213307)"><path
               id="path27581"
               style="fill:#121415;stroke-width:3.625;stroke-linecap:round;stroke-linejoin:round;paint-order:stroke fill markers"
               d="M 33.25,45.125 A 4.875,6.625 0 0 1 28.375,51.75 4.875,6.625 0 0 1 23.5,45.125 4.875,6.625 0 0 1 28.375,38.5 4.875,6.625 0 0 1 33.25,45.125 Z" /><path
               style="fill:#000000;fill-opacity:1;stroke:#ffffff;stroke-width:3.18627;stroke-linecap:round;stroke-linejoin:round;stroke-dasharray:none;stroke-opacity:1"
               d="m 28.100216,46.540421 c 0.04011,0.07085 -0.755957,1.727777 -2.971264,3.00689 -2.215307,1.279113 -2.465006,2.141091 -5.455716,3.658069 -2.99071,1.516978 -5.069963,3.931635 -10.0731566,4.687168 -5.0031935,0.755533 -10.8505351,0.630367 -14.3505517,-0.196989 -3.5000166,-0.827356 -4.2944211,-1.417732 -5.8621627,-2.457816 -1.567742,-1.040084 -2.751834,-2.380487 -3.388984,-3.269354 -0.63715,-0.888867 -0.113599,-0.01594 -0.845824,-1.345941 -0.732225,-1.329998 -2.57561,-6.268132 -2.176018,-7.457812 0.399592,-1.189681 -0.340703,1.014353 2e-6,-5e-6 0.340704,-1.014358 0.608158,-4.225887 1.795307,-5.935033 1.187149,-1.709146 2.728262,-3.002856 4.595162,-4.090333 1.8668996,-1.087477 2.6078446,-1.555242 6.3535415,-2.606683 3.74569691,-1.051441 7.4214981,-1.689813 10.7357264,-1.569677 3.3142283,0.120136 0.1778274,-0.01492 1.366556,0.308704 1.1887286,0.323622 1.642064,0.617078 1.605049,0.779703 -0.037015,0.162625 -0.046334,0.226139 -1.619483,0.05883 -1.5731491,-0.167309 1.9993422,0.173017 -1.256658,0.230474 -3.2560002,0.05746 -6.73901063,0.943285 -10.346442,2.055562 -3.6074314,1.112277 -4.2862221,1.546013 -6.0158127,2.604771 -1.7295902,1.058758 -3.1117902,2.242679 -4.0721052,3.685909 -0.960315,1.44323 -1.401607,3.800996 -1.401607,4.652247 0,0.851251 0,-1.030035 0,4e-6 0,1.030039 1.240551,5.006994 1.865679,6.186796 0.625128,1.179802 0.156949,0.361723 0.674072,1.081523 0.517123,0.7198 1.490355,1.814707 2.8473464,2.73542 1.3569912,0.920713 2.0249465,1.427863 5.3216369,2.250597 3.2966904,0.822734 8.930968,1.006502 13.8639077,0.388975 4.93294,-0.617527 7.378902,-3.333374 10.569592,-4.639245 3.19069,-1.305871 2.497479,-1.644393 4.756045,-2.693524 2.258566,-1.049131 3.446791,-2.178775 3.486162,-2.109233 0.03937,0.06954 -0.04011,-0.07084 0,3e-6 z"
               id="path27583"
               sodipodi:nodetypes="zzzzzzzzzzzzzzzzzzzzzzzzzzzzzzzz" /></g><g
             id="g27591"
             transform="translate(0,133.81996)"><path
               id="path27587"
               style="fill:#121415;stroke-width:3.625;stroke-linecap:round;stroke-linejoin:round;paint-order:stroke fill markers"
               d="M 33.25,45.125 A 4.875,6.625 0 0 1 28.375,51.75 4.875,6.625 0 0 1 23.5,45.125 4.875,6.625 0 0 1 28.375,38.5 4.875,6.625 0 0 1 33.25,45.125 Z" /><path
               style="fill:#000000;fill-opacity:1;stroke:#ffffff;stroke-width:3.18627;stroke-linecap:round;stroke-linejoin:round;stroke-dasharray:none;stroke-opacity:1"
               d="m 28.100216,46.540421 c 0.04011,0.07085 -0.755957,1.727777 -2.971264,3.00689 -2.215307,1.279113 -2.465006,2.141091 -5.455716,3.658069 -2.99071,1.516978 -5.069963,3.931635 -10.0731566,4.687168 -5.0031935,0.755533 -10.8505351,0.630367 -14.3505517,-0.196989 -3.5000166,-0.827356 -4.2944211,-1.417732 -5.8621627,-2.457816 -1.567742,-1.040084 -2.751834,-2.380487 -3.388984,-3.269354 -0.63715,-0.888867 -0.113599,-0.01594 -0.845824,-1.345941 -0.732225,-1.329998 -2.57561,-6.268132 -2.176018,-7.457812 0.399592,-1.189681 -0.340703,1.014353 2e-6,-5e-6 0.340704,-1.014358 0.608158,-4.225887 1.795307,-5.935033 1.187149,-1.709146 2.728262,-3.002856 4.595162,-4.090333 1.8668996,-1.087477 2.6078446,-1.555242 6.3535415,-2.606683 3.74569691,-1.051441 7.4214981,-1.689813 10.7357264,-1.569677 3.3142283,0.120136 0.1778274,-0.01492 1.366556,0.308704 1.1887286,0.323622 1.642064,0.617078 1.605049,0.779703 -0.037015,0.162625 -0.046334,0.226139 -1.619483,0.05883 -1.5731491,-0.167309 1.9993422,0.173017 -1.256658,0.230474 -3.2560002,0.05746 -6.73901063,0.943285 -10.346442,2.055562 -3.6074314,1.112277 -4.2862221,1.546013 -6.0158127,2.604771 -1.7295902,1.058758 -3.1117902,2.242679 -4.0721052,3.685909 -0.960315,1.44323 -1.401607,3.800996 -1.401607,4.652247 0,0.851251 0,-1.030035 0,4e-6 0,1.030039 1.240551,5.006994 1.865679,6.186796 0.625128,1.179802 0.156949,0.361723 0.674072,1.081523 0.517123,0.7198 1.490355,1.814707 2.8473464,2.73542 1.3569912,0.920713 2.0249465,1.427863 5.3216369,2.250597 3.2966904,0.822734 8.930968,1.006502 13.8639077,0.388975 4.93294,-0.617527 7.378902,-3.333374 10.569592,-4.639245 3.19069,-1.305871 2.497479,-1.644393 4.756045,-2.693524 2.258566,-1.049131 3.446791,-2.178775 3.486162,-2.109233 0.03937,0.06954 -0.04011,-0.07084 0,3e-6 z"
               id="path27589"
               sodipodi:nodetypes="zzzzzzzzzzzzzzzzzzzzzzzzzzzzzzzz" /></g></g></g></g></g></svg>
